<svg version="1.1" id="Layer_1" xmlns="http://www.w3.org/2000/svg" xmlns:xlink="http://www.w3.org/1999/xlink" x="0px" y="0px"
	 width="100%" viewBox="0 0 318 286" enable-background="new 0 0 318 286" xml:space="preserve">
<path fill="#010101" opacity="1.000000" stroke="none" 
	d="
M191.000000,287.000000 
	C127.333344,287.000000 64.166687,287.000000 1.000025,287.000000 
	C1.000017,191.666702 1.000017,96.333389 1.000008,1.000064 
	C106.999947,1.000043 212.999893,1.000043 318.999878,1.000021 
	C318.999939,96.333275 318.999939,191.666550 318.999969,286.999908 
	C276.500000,287.000000 234.000000,287.000000 191.000000,287.000000 
M183.798508,8.703487 
	C151.236572,3.894220 120.047546,8.061430 91.706871,25.291368 
	C55.394833,47.367554 34.429962,80.011345 28.789139,122.436867 
	C27.091366,122.359177 25.683250,122.294739 24.182770,122.226074 
	C24.573357,118.359077 24.928673,114.841263 25.282463,111.338562 
	C15.626654,110.395691 8.708451,115.705757 8.064502,124.838188 
	C7.374292,134.626709 7.307903,144.470551 7.273294,154.291306 
	C7.221042,169.118637 7.155864,183.957321 7.713861,198.767899 
	C7.865373,202.789413 9.105593,207.918961 11.802663,210.477402 
	C19.512789,217.791214 29.132202,217.257324 38.394672,213.576309 
	C46.504330,210.353455 50.052807,203.762085 50.022411,195.070816 
	C49.957153,176.408234 49.845039,157.743515 50.052612,139.083008 
	C50.218151,124.201447 52.861889,109.733398 58.626240,95.921394 
	C80.354103,43.859100 138.214111,14.862305 196.706818,33.868160 
	C240.247406,48.015667 270.075409,88.264000 271.893433,135.269623 
	C272.672180,155.405441 272.120422,175.592499 272.185699,195.756226 
	C272.218201,205.794418 275.961670,211.180588 285.272156,214.653168 
	C301.753479,220.800278 314.949738,211.826248 314.983948,194.375961 
	C315.023804,174.045120 315.180176,153.710663 314.828064,133.385712 
	C314.744324,128.550308 313.488037,123.476265 311.620331,118.991165 
	C308.791260,112.197479 301.067413,108.479156 295.080872,110.155640 
	C295.532959,114.329987 295.989197,118.542549 296.445404,122.755112 
	C295.905457,122.958961 295.365509,123.162811 294.825531,123.366653 
	C293.883057,121.386543 292.416901,119.492081 292.076843,117.413422 
	C287.199280,87.596062 274.086914,62.164093 251.990524,41.464233 
	C232.935944,23.613962 210.431396,12.863076 183.798508,8.703487 
M145.213043,210.499893 
	C145.213043,233.615356 145.213043,256.730804 145.213043,280.009979 
	C149.032639,280.009979 152.427658,280.009979 155.718964,280.009979 
	C155.718964,208.300766 155.718964,136.891891 155.718964,65.421021 
	C152.170364,65.421021 148.921005,65.421021 145.213043,65.421021 
	C145.213043,113.613182 145.213043,161.556534 145.213043,210.499893 
M135.594574,169.500214 
	C135.594574,147.248657 135.594574,124.997108 135.594574,102.812126 
	C131.613373,102.812126 128.371124,102.812126 125.221497,102.812126 
	C125.221497,149.723251 125.221497,196.297989 125.221497,242.727875 
	C128.796509,242.727875 132.040710,242.727875 135.594543,242.727875 
	C135.594543,218.445831 135.594543,194.473022 135.594574,169.500214 
M197.002594,180.500000 
	C197.002594,161.931427 197.002594,143.362839 197.002594,124.801620 
	C193.059937,124.801620 189.681671,124.801620 186.418091,124.801620 
	C186.418091,164.374283 186.418091,203.567688 186.418091,242.693634 
	C190.105652,242.693634 193.492279,242.693634 197.002655,242.693634 
	C197.002655,222.072113 197.002655,201.786057 197.002594,180.500000 
M176.272156,163.500137 
	C176.272156,154.778030 176.272156,146.055908 176.272156,137.416260 
	C172.344345,137.416260 169.248840,137.416260 166.154205,137.416260 
	C166.154205,160.989166 166.154205,184.304825 166.154205,207.562592 
	C169.667587,207.562592 172.764114,207.562592 176.270935,207.562592 
	C176.270935,193.041275 176.270935,178.770721 176.272156,163.500137 
M104.473030,148.815277 
	C104.473030,166.106094 104.473030,183.396912 104.473030,200.714188 
	C108.282173,200.714188 111.539421,200.714188 114.862534,200.714188 
	C114.862534,182.061249 114.862534,163.663925 114.862534,144.984131 
	C112.133980,144.984131 109.612480,144.700333 107.212120,145.116013 
	C106.170670,145.296356 105.378609,146.916824 104.473030,148.815277 
M217.483841,181.500000 
	C217.483841,169.429626 217.483841,157.359253 217.483841,145.254852 
	C213.668228,145.254852 210.420227,145.254852 207.168091,145.254852 
	C207.168091,163.887161 207.168091,182.264236 207.168091,200.685516 
	C210.697983,200.685516 213.947128,200.685516 217.484055,200.685516 
	C217.484055,194.449173 217.484055,188.474548 217.483841,181.500000 
M93.187622,156.161972 
	C90.262665,156.161972 87.337708,156.161972 84.336945,156.161972 
	C84.336945,167.704010 84.336945,178.571213 84.336945,189.675278 
	C85.737495,189.743958 86.864914,189.835419 87.993256,189.848648 
	C94.784966,189.928284 94.940430,189.768646 94.944099,182.915833 
	C94.946503,178.434128 95.053902,173.948929 94.912209,169.471695 
	C94.773331,165.083374 94.378662,160.703171 93.187622,156.161972 
M238.585052,187.699265 
	C238.585052,177.322327 238.585052,166.945374 238.585052,156.394119 
	C234.939438,156.394119 231.705460,156.394119 228.325592,156.394119 
	C228.325592,167.643173 228.325592,178.640976 228.325592,190.573303 
	C231.900497,189.775238 234.975708,189.088730 238.585052,187.699265 
M258.971375,172.622986 
	C258.565521,168.567612 255.901520,167.837601 248.375656,169.720810 
	C248.375656,173.322388 248.375656,176.923981 248.375656,180.740448 
	C251.949677,180.740448 255.321960,180.740448 258.971405,180.740448 
	C258.971405,178.170135 258.971405,175.870972 258.971375,172.622986 
M64.630951,180.996536 
	C67.409187,180.996536 70.187424,180.996536 73.085739,180.996536 
	C73.085739,176.850983 73.085739,173.136475 73.085739,169.257904 
	C69.629478,169.257904 66.405228,169.257904 62.470768,169.257904 
	C62.886559,173.346786 63.273079,177.147842 64.630951,180.996536 
z"/>
<path fill="#FDFDFD" opacity="1.000000" stroke="none" 
	d="
M184.229065,8.790388 
	C210.431396,12.863076 232.935944,23.613962 251.990524,41.464233 
	C274.086914,62.164093 287.199280,87.596062 292.076843,117.413422 
	C292.416901,119.492081 293.883057,121.386543 294.825531,123.366653 
	C295.365509,123.162811 295.905457,122.958961 296.445404,122.755112 
	C295.989197,118.542549 295.532959,114.329987 295.080872,110.155640 
	C301.067413,108.479156 308.791260,112.197479 311.620331,118.991165 
	C313.488037,123.476265 314.744324,128.550308 314.828064,133.385712 
	C315.180176,153.710663 315.023804,174.045120 314.983948,194.375961 
	C314.949738,211.826248 301.753479,220.800278 285.272156,214.653168 
	C275.961670,211.180588 272.218201,205.794418 272.185699,195.756226 
	C272.120422,175.592499 272.672180,155.405441 271.893433,135.269623 
	C270.075409,88.264000 240.247406,48.015667 196.706818,33.868160 
	C138.214111,14.862305 80.354103,43.859100 58.626240,95.921394 
	C52.861889,109.733398 50.218151,124.201447 50.052612,139.083008 
	C49.845039,157.743515 49.957153,176.408234 50.022411,195.070816 
	C50.052807,203.762085 46.504330,210.353455 38.394672,213.576309 
	C29.132202,217.257324 19.512789,217.791214 11.802663,210.477402 
	C9.105593,207.918961 7.865373,202.789413 7.713861,198.767899 
	C7.155864,183.957321 7.221042,169.118637 7.273294,154.291306 
	C7.307903,144.470551 7.374292,134.626709 8.064502,124.838188 
	C8.708451,115.705757 15.626654,110.395691 25.282463,111.338562 
	C24.928673,114.841263 24.573357,118.359077 24.182770,122.226074 
	C25.683250,122.294739 27.091366,122.359177 28.789139,122.436867 
	C34.429962,80.011345 55.394833,47.367554 91.706871,25.291368 
	C120.047546,8.061430 151.236572,3.894220 184.229065,8.790388 
z"/>
<path fill="#F7F7F7" opacity="1.000000" stroke="none" 
	d="
M145.213043,209.999878 
	C145.213043,161.556534 145.213043,113.613182 145.213043,65.421021 
	C148.921005,65.421021 152.170364,65.421021 155.718964,65.421021 
	C155.718964,136.891891 155.718964,208.300766 155.718964,280.009979 
	C152.427658,280.009979 149.032639,280.009979 145.213043,280.009979 
	C145.213043,256.730804 145.213043,233.615356 145.213043,209.999878 
z"/>
<path fill="#F4F4F4" opacity="1.000000" stroke="none" 
	d="
M135.594559,170.000214 
	C135.594543,194.473022 135.594543,218.445831 135.594543,242.727875 
	C132.040710,242.727875 128.796509,242.727875 125.221497,242.727875 
	C125.221497,196.297989 125.221497,149.723251 125.221497,102.812126 
	C128.371124,102.812126 131.613373,102.812126 135.594574,102.812126 
	C135.594574,124.997108 135.594574,147.248657 135.594559,170.000214 
z"/>
<path fill="#F9F9F9" opacity="1.000000" stroke="none" 
	d="
M197.002625,181.000000 
	C197.002655,201.786057 197.002655,222.072113 197.002655,242.693634 
	C193.492279,242.693634 190.105652,242.693634 186.418091,242.693634 
	C186.418091,203.567688 186.418091,164.374283 186.418091,124.801620 
	C189.681671,124.801620 193.059937,124.801620 197.002594,124.801620 
	C197.002594,143.362839 197.002594,161.931427 197.002625,181.000000 
z"/>
<path fill="#FDFDFD" opacity="1.000000" stroke="none" 
	d="
M176.271545,164.000153 
	C176.270935,178.770721 176.270935,193.041275 176.270935,207.562592 
	C172.764114,207.562592 169.667587,207.562592 166.154205,207.562592 
	C166.154205,184.304825 166.154205,160.989166 166.154205,137.416260 
	C169.248840,137.416260 172.344345,137.416260 176.272156,137.416260 
	C176.272156,146.055908 176.272156,154.778030 176.271545,164.000153 
z"/>
<path fill="#F6F6F6" opacity="1.000000" stroke="none" 
	d="
M104.473145,148.349213 
	C105.378609,146.916824 106.170670,145.296356 107.212120,145.116013 
	C109.612480,144.700333 112.133980,144.984131 114.862534,144.984131 
	C114.862534,163.663925 114.862534,182.061249 114.862534,200.714188 
	C111.539421,200.714188 108.282173,200.714188 104.473030,200.714188 
	C104.473030,183.396912 104.473030,166.106094 104.473145,148.349213 
z"/>
<path fill="#FFFFFF" opacity="1.000000" stroke="none" 
	d="
M217.483948,181.999969 
	C217.484055,188.474548 217.484055,194.449173 217.484055,200.685516 
	C213.947128,200.685516 210.697983,200.685516 207.168091,200.685516 
	C207.168091,182.264236 207.168091,163.887161 207.168091,145.254852 
	C210.420227,145.254852 213.668228,145.254852 217.483841,145.254852 
	C217.483841,157.359253 217.483841,169.429626 217.483948,181.999969 
z"/>
<path fill="#F6F6F6" opacity="1.000000" stroke="none" 
	d="
M93.641937,156.240692 
	C94.378662,160.703171 94.773331,165.083374 94.912209,169.471695 
	C95.053902,173.948929 94.946503,178.434128 94.944099,182.915833 
	C94.940430,189.768646 94.784966,189.928284 87.993256,189.848648 
	C86.864914,189.835419 85.737495,189.743958 84.336945,189.675278 
	C84.336945,178.571213 84.336945,167.704010 84.336945,156.161972 
	C87.337708,156.161972 90.262665,156.161972 93.641937,156.240692 
z"/>
<path fill="#F6F6F6" opacity="1.000000" stroke="none" 
	d="
M238.317993,188.050751 
	C234.975708,189.088730 231.900497,189.775238 228.325592,190.573303 
	C228.325592,178.640976 228.325592,167.643173 228.325592,156.394119 
	C231.705460,156.394119 234.939438,156.394119 238.585052,156.394119 
	C238.585052,166.945374 238.585052,177.322327 238.317993,188.050751 
z"/>
<path fill="#F7F7F7" opacity="1.000000" stroke="none" 
	d="
M258.971375,173.097397 
	C258.971405,175.870972 258.971405,178.170135 258.971405,180.740448 
	C255.321960,180.740448 251.949677,180.740448 248.375656,180.740448 
	C248.375656,176.923981 248.375656,173.322388 248.371979,169.719131 
	C255.901520,167.837601 258.565521,168.567612 258.971375,173.097397 
z"/>
<path fill="#FEFEFE" opacity="1.000000" stroke="none" 
	d="
M64.145279,180.972717 
	C63.273079,177.147842 62.886559,173.346786 62.470768,169.257904 
	C66.405228,169.257904 69.629478,169.257904 73.085739,169.257904 
	C73.085739,173.136475 73.085739,176.850983 73.085739,180.996536 
	C70.187424,180.996536 67.409187,180.996536 64.145279,180.972717 
z"/>
</svg>